<?xml version="1.0" encoding="UTF-8"?>
<svg version="1.1" xmlns="http://www.w3.org/2000/svg" width="392" height="342">
<path d="M0 0 C3.16993396 2.90773961 5.14689733 5.73150195 7.14453125 9.53125 C7.73129639 10.63774902 8.31806152 11.74424805 8.92260742 12.88427734 C9.55261896 14.08949348 10.18258184 15.29473505 10.8125 16.5 C11.47488616 17.75383096 12.13806745 19.00724214 12.80200195 20.26025391 C14.18266197 22.86749875 15.55987477 25.47651972 16.93457031 28.08691406 C20.15627411 34.19858112 23.42269551 40.28628349 26.6875 46.375 C27.6161084 48.1082251 27.6161084 48.1082251 28.56347656 49.87646484 C32.54492476 57.30254857 36.539578 64.72129461 40.5625 72.125 C41.0268042 72.98270996 41.4911084 73.84041992 41.96948242 74.72412109 C44.28053957 78.96420093 46.66578238 83.13896831 49.16796875 87.26953125 C51.20534122 90.63553938 53.07424025 93.99879013 54.75 97.5625 C57.7192389 103.6352253 61.10685257 109.41556616 64.57324219 115.21313477 C65.19440918 116.25232056 65.19440918 116.25232056 65.828125 117.3125 C66.1984082 117.92738281 66.56869141 118.54226562 66.95019531 119.17578125 C68.04797922 121.08337227 69.02365785 123.0277653 70 125 C76.12433896 136.50661641 82.46691721 147.89957736 88.875 159.25 C89.39747314 160.17659424 89.91994629 161.10318848 90.45825195 162.05786133 C92.91935559 166.40229877 95.41882033 170.71480896 98.0078125 174.984375 C100.61022601 179.29590569 103.04377631 183.68085011 105.43701172 188.11132812 C108.27010942 193.34738123 111.17099235 198.54604417 114.0625 203.75 C114.54780182 204.6235614 114.54780182 204.6235614 115.04290771 205.51477051 C120.59278739 215.50163953 126.19119376 225.46043047 131.828125 235.3984375 C133.95425402 239.1472763 136.06799345 242.90269494 138.171875 246.6640625 C144.03641169 257.13216652 150.02859621 267.51514394 156.1875 277.8125 C157.15985596 279.44227783 157.15985596 279.44227783 158.15185547 281.10498047 C159.05701904 282.60955811 159.05701904 282.60955811 159.98046875 284.14453125 C160.78327271 285.48028198 160.78327271 285.48028198 161.60229492 286.84301758 C162.95344486 289.09270277 162.95344486 289.09270277 165 291 C165.33 291.99 165.66 292.98 166 294 C159.16459376 293.27440802 152.52841561 291.95050302 145.8125 290.5 C144.02066284 290.11448975 144.02066284 290.11448975 142.19262695 289.72119141 C131.65497572 287.42116634 121.16703027 284.92558332 110.6875 282.375 C109.91548248 282.18736084 109.14346497 281.99972168 108.34805298 281.80639648 C98.19595047 279.33341898 88.08485276 276.73484394 78 274 C77.67 274.66 77.34 275.32 77 276 C76.67 275.01 76.34 274.02 76 273 C74.82195801 272.90412598 73.64391602 272.80825195 72.43017578 272.70947266 C65.54106487 271.9381322 58.85296014 270.24127528 52.1171875 268.6484375 C50.65743168 268.30742571 49.19755956 267.96691138 47.73757935 267.62686157 C43.89171543 266.72986983 40.04728592 265.82688096 36.20318604 264.92236328 C32.40699475 264.02986771 28.60976881 263.1418043 24.8125 262.25390625 C24.06766483 262.07971287 23.32282967 261.90551949 22.55542374 261.72604752 C15.11520347 259.98645569 7.67398443 258.25117537 0.2318573 256.51976013 C-2.03363154 255.99216781 -4.29875159 255.46301252 -6.56384277 254.93371582 C-10.22432861 254.07917552 -13.8864856 253.23217185 -17.54998398 252.39064407 C-18.91874498 252.0750843 -20.2869543 251.75712116 -21.65457535 251.43665695 C-23.52977303 250.99770065 -25.40716988 250.56817054 -27.28466797 250.13916016 C-28.34458954 249.89396637 -29.40451111 249.64877258 -30.49655151 249.39614868 C-32.99026226 248.75283396 -32.99026226 248.75283396 -35 250 C-35 249.34 -35 248.68 -35 248 C-41.27 247.01 -47.54 246.02 -54 245 C-52.69439083 242.38878166 -51.71315803 242.02833739 -49 241 C-46.28515625 240.875 -46.28515625 240.875 -43.0625 241 C-37.29458646 241.09783278 -31.73446578 240.74678214 -26.00390625 240.12890625 C-12.02996001 238.71583099 1.98568481 237.91610167 16.00244141 237.06671143 C18.83366598 236.89435973 21.66468364 236.71874058 24.49570084 236.54302025 C39.3266555 235.6227611 54.15861002 234.73645952 69 234 C67.21396706 230.70524627 65.42022632 227.41475222 63.625 224.125 C63.11710937 223.18785156 62.60921875 222.25070313 62.0859375 221.28515625 C61.59609375 220.38925781 61.10625 219.49335938 60.6015625 218.5703125 C59.92601318 217.32918701 59.92601318 217.32918701 59.23681641 216.06298828 C58.04107654 213.87916097 58.04107654 213.87916097 56 212 C55.06199013 210.21951163 54.16720883 208.41609285 53.296875 206.6015625 C50.22162861 200.34856151 46.80665655 194.36382931 43.25 188.375 C39.06824213 181.27045504 34.91750886 174.15726254 30.9375 166.9375 C25.03985223 156.24526493 19.04480933 145.60971481 13 135 C12.49807129 134.11602539 11.99614258 133.23205078 11.47900391 132.32128906 C10.09861475 129.89671795 8.70773797 127.47854912 7.3125 125.0625 C6.90257812 124.34054443 6.49265625 123.61858887 6.0703125 122.87475586 C5.10363451 121.2154432 4.05976147 119.6014651 3 118 C2.34 118 1.68 118 1 118 C-0.57458041 120.02838557 -0.57458041 120.02838557 -2.25 122.75 C-5.81340718 128.25806893 -9.52899094 133.64102004 -13.3125 139 C-22.38098421 151.8818591 -31.18159548 164.94638484 -40 178 C-39.34 178.66 -38.68 179.32 -38 180 C-38.69867188 180.15210938 -39.39734375 180.30421875 -40.1171875 180.4609375 C-44.50244841 182.80212015 -46.46627547 186.51715265 -49.125 190.625 C-50.28487985 192.36867347 -51.44504024 194.11216037 -52.60546875 195.85546875 C-53.17958496 196.7273584 -53.75370117 197.59924805 -54.34521484 198.49755859 C-56.66626785 202.00756056 -59.04687406 205.47467677 -61.4375 208.9375 C-61.87457275 209.57373291 -62.31164551 210.20996582 -62.76196289 210.86547852 C-66.49272412 216.28990184 -70.27778081 221.67565418 -74.0625 227.0625 C-78.53237936 233.4286189 -82.93623002 239.82835885 -87.22265625 246.31933594 C-91.33781221 252.54300002 -95.56521574 258.68892755 -99.79907227 264.83227539 C-100.33072998 265.60563232 -100.8623877 266.37898926 -101.41015625 267.17578125 C-101.88590088 267.86583252 -102.36164551 268.55588379 -102.85180664 269.2668457 C-104.05086656 271.00076823 -104.05086656 271.00076823 -105 273 C-104.16126595 273.03425331 -104.16126595 273.03425331 -103.30558777 273.06919861 C-97.38229962 273.31132285 -91.45907768 273.55502323 -85.53588867 273.79956055 C-83.33766245 273.89011817 -81.13942069 273.98029966 -78.94116211 274.07006836 C-68.13440764 274.51161345 -57.3306306 274.96486687 -46.53125 275.5625 C-40.45398227 275.89665859 -34.39962644 276.14077166 -28.3125 276.0625 C-27.22485352 276.05573242 -27.22485352 276.05573242 -26.11523438 276.04882812 C-24.41011596 276.03753595 -22.7050426 276.01964838 -21 276 C-21 276.66 -21 277.32 -21 278 C-16.21281308 278.02471738 -11.4256633 278.04286825 -6.63842773 278.05493164 C-5.00984042 278.05996065 -3.38125763 278.06678465 -1.75268555 278.07543945 C0.58806472 278.08756769 2.9287553 278.09324263 5.26953125 278.09765625 C5.99775589 278.10281754 6.72598053 278.10797882 7.47627258 278.11329651 C10.59602288 278.11364279 13.01633188 277.99455604 16 277 C16 277.66 16 278.32 16 279 C23.55425764 279.52476527 31.10871646 280.04654685 38.66343689 280.56460571 C42.1720479 280.80529822 45.68058419 281.04698646 49.18896484 281.29101562 C53.22993819 281.57204469 57.27120566 281.84862502 61.3125 282.125 C62.5617627 282.21249512 63.81102539 282.29999023 65.09814453 282.39013672 C72.40792797 282.88654299 72.40792797 282.88654299 79.73046875 282.9921875 C83 283 83 283 85 284 C85 284.66 85 285.32 85 286 C79.47344603 287.48911657 74.12512222 288.47057552 68.4375 289.0625 C66.99860609 289.21921122 65.55980252 289.37675428 64.12109375 289.53515625 C63.4964624 289.600979 62.87183105 289.66680176 62.22827148 289.73461914 C59.14401615 290.10194527 56.07417615 290.55618114 53 291 C49.88322608 291.43786292 46.7657904 291.87096786 43.6484375 292.3046875 C41.80728968 292.56118364 39.96614392 292.81769457 38.125 293.07421875 C35.27378536 293.47135222 32.4225565 293.86838251 29.57128906 294.26513672 C17.02513601 296.0112054 4.48213408 297.77756407 -8.05639648 299.57757568 C-11.29400403 300.0421913 -14.53177107 300.50568756 -17.76953125 300.96923828 C-23.83788731 301.83870434 -29.90555615 302.71285827 -35.97290039 303.58935547 C-38.48313029 303.95133013 -40.99355257 304.31197279 -43.50415039 304.67138672 C-47.17381733 305.19694025 -50.84282381 305.72689998 -54.51171875 306.2578125 C-56.20200447 306.49843918 -56.20200447 306.49843918 -57.92643738 306.743927 C-58.95964615 306.89433441 -59.99285492 307.04474182 -61.05737305 307.19970703 C-61.96666061 307.33055695 -62.87594818 307.46140686 -63.81278992 307.59622192 C-66.0349259 307.90187667 -66.0349259 307.90187667 -68 309 C-69.64485287 309.17260342 -71.29471354 309.29815168 -72.9453125 309.40234375 C-78.34858099 309.81456683 -83.68950924 310.44817899 -89.0546875 311.19140625 C-89.85110657 311.30149017 -90.64752563 311.4115741 -91.46807861 311.5249939 C-94.77877156 311.98551686 -98.08868028 312.45150537 -101.3984375 312.91870117 C-103.84589435 313.26299392 -106.29399556 313.60238641 -108.7421875 313.94140625 C-109.48290497 314.04763809 -110.22362244 314.15386993 -110.98678589 314.26332092 C-115.02391888 314.82077733 -118.92525046 315.10853717 -123 315 C-123.33 315.66 -123.66 316.32 -124 317 C-126.22070312 317.31738281 -126.22070312 317.31738281 -129.28125 317.453125 C-135.09645913 317.81697106 -140.82188682 318.44018801 -146.59375 319.234375 C-147.45961731 319.35332123 -148.32548462 319.47226746 -149.21759033 319.59481812 C-151.97878919 319.97708749 -154.73938582 320.36353312 -157.5 320.75 C-159.43190706 321.01751689 -161.36387411 321.28460087 -163.29589844 321.55126953 C-167.24367614 322.09631961 -171.19123315 322.64293049 -175.13867188 323.19042969 C-183.35552887 324.32786045 -191.57617718 325.43710247 -199.79711914 326.54455566 C-202.22352325 326.87143314 -204.64985894 327.1988137 -207.07617188 327.52636719 C-210.71740265 328.01791408 -214.35868359 328.50908782 -218 329 C-218 325.44174655 -217.35060258 324.77486951 -215.2734375 321.97265625 C-211.81337255 317.17491942 -208.49757415 312.2996891 -205.2265625 307.37109375 C-204.70161194 306.58167389 -204.17666138 305.79225403 -203.63580322 304.97891235 C-202.53357774 303.321086 -201.43175998 301.66298851 -200.33032227 300.00463867 C-190.8024398 285.66166314 -181.21036031 271.36717422 -171.50390625 257.14453125 C-166.94747749 250.46609803 -162.46747699 243.7381029 -158 237 C-156.62559069 234.93710633 -155.25061159 232.87459214 -153.875 230.8125 C-153.2253125 229.83796875 -152.575625 228.8634375 -151.90625 227.859375 C-144.4309082 216.6463623 -144.4309082 216.6463623 -136.95556641 205.43334961 C-136.35147949 204.52721924 -135.74739258 203.62108887 -135.125 202.6875 C-132.75 199.125 -130.375 195.5625 -128 192 C-127.54334961 191.31502441 -127.08669922 190.63004883 -126.61621094 189.92431641 C-126.2040332 189.3060498 -125.79185547 188.6877832 -125.3671875 188.05078125 C-124.97112305 187.45668457 -124.57505859 186.86258789 -124.16699219 186.25048828 C-123.3889974 185.08349609 -122.6110026 183.91650391 -121.83300781 182.74951172 C-121.43694336 182.15541504 -121.04087891 181.56131836 -120.6328125 180.94921875 C-120.22063477 180.33095215 -119.80845703 179.71268555 -119.38378906 179.07568359 C-118.92713867 178.39070801 -118.47048828 177.70573242 -118 177 C-106.52083333 159.78125 -95.04166667 142.5625 -83.5625 125.34375 C-83.16232666 124.74344971 -82.76215332 124.14314941 -82.34985352 123.5246582 C-81.52236653 122.28351019 -80.6947259 121.04246459 -79.86694336 119.80151367 C-77.72155063 116.58486004 -75.5788474 113.36647491 -73.44140625 110.14453125 C-68.56744579 102.80626817 -63.66112303 95.49143895 -58.70703125 88.20703125 C-58.23955978 87.5191452 -57.77208832 86.83125916 -57.29045105 86.12252808 C-54.93342154 82.65434802 -52.57379413 79.18798919 -50.2097168 75.72460938 C-49.32720103 74.42715826 -48.444791 73.12963522 -47.5625 71.83203125 C-47.16186844 71.2471846 -46.76123688 70.66233795 -46.34846497 70.05976868 C-43.69005487 66.1423571 -41.32692322 62.12287489 -39 58 C-38.05235071 56.66456583 -37.07753543 55.34746175 -36.0625 54.0625 C-33.44520458 50.67658111 -31.21568552 47.1738549 -29.078125 43.46875 C-28.54445312 42.74171875 -28.54445312 42.74171875 -28 42 C-27.34 42 -26.68 42 -26 42 C-25.7613623 41.31534668 -25.52272461 40.63069336 -25.27685547 39.92529297 C-23.74243869 36.4099236 -21.7211234 33.35170547 -19.5703125 30.1953125 C-19.13870819 29.5531076 -18.70710388 28.91090271 -18.26242065 28.24923706 C-16.8876626 26.20483089 -15.50679515 24.16465504 -14.125 22.125 C-12.75112849 20.09197945 -11.37867559 18.05803805 -10.00900269 16.02218628 C-9.15902248 14.75929029 -8.30658246 13.49804489 -7.45120239 12.23880005 C-4.76756636 8.25786844 -2.33976199 4.19282671 0 0 Z M32 72 C30.69647674 73.49519894 30.69647674 73.49519894 29.41796875 75.48828125 C28.90387451 76.24906982 28.38978027 77.0098584 27.86010742 77.79370117 C27.30814697 78.62490479 26.75618652 79.4561084 26.1875 80.3125 C25.02103816 82.04440881 23.85436497 83.77617528 22.6875 85.5078125 C22.08421875 86.40790039 21.4809375 87.30798828 20.859375 88.23535156 C17.83051855 92.73886659 14.7574271 97.21193019 11.6875 101.6875 C10.58702728 103.29542764 9.48674715 104.90348711 8.38671875 106.51171875 C7.59114583 107.67447917 6.79557292 108.83723958 6 110 C13.68332784 126.25036111 22.79940669 141.74074773 32.08203125 157.12109375 C35.17343989 162.25559192 38.12599209 167.46324755 41.0625 172.6875 C41.62340332 173.68225342 42.18430664 174.67700684 42.76220703 175.7019043 C44.50939369 178.80056397 46.25491961 181.90015372 48 185 C55.00817309 197.44820159 62.05404429 209.8731808 69.1875 222.25 C69.8357373 223.37575439 70.48397461 224.50150879 71.15185547 225.66137695 C71.75529785 226.70640381 72.35874023 227.75143066 72.98046875 228.828125 C73.78327271 230.2188623 73.78327271 230.2188623 74.60229492 231.63769531 C75.67981469 233.45884488 76.82623098 235.23934646 78 237 C78.66 237 79.32 237 80 237 C79.67 237.66 79.34 238.32 79 239 C77.71053467 239.07516846 76.42106934 239.15033691 75.0925293 239.2277832 C59.72676585 240.12608717 44.3628108 241.0525667 29 242 C27.90212158 242.06743408 26.80424316 242.13486816 25.6730957 242.2043457 C19.53814755 242.58232829 13.40407293 242.97117085 7.27090454 243.37704468 C5.38161542 243.50070465 3.49210335 243.62100406 1.60238647 243.73794556 C-1.01707343 243.90081578 -3.63545213 244.07569023 -6.25390625 244.25390625 C-7.03066711 244.29968811 -7.80742798 244.34546997 -8.60772705 244.39263916 C-10.41187538 244.52213985 -12.20848499 244.75060954 -14 245 C-14.495 245.99 -14.495 245.99 -15 247 C-13.90175652 247.25190346 -13.90175652 247.25190346 -12.78132629 247.50889587 C-3.45753957 249.6480959 5.86534295 251.7912098 15.1875 253.9375 C15.93683304 254.11001659 16.68616608 254.28253319 17.45820618 254.46027756 C34.57795371 258.40270944 51.69549745 262.34485126 68.75 266.5625 C84.22481484 270.38244622 99.74570523 274.00253807 115.27648926 277.58688354 C118.0767737 278.23319118 120.87646515 278.8819758 123.67565918 279.5329895 C127.60518594 280.44656624 131.53681118 281.3507665 135.46875 282.25390625 C136.65966248 282.53153809 137.85057495 282.80916992 139.07757568 283.09521484 C140.18054993 283.34682373 141.28352417 283.59843262 142.41992188 283.85766602 C143.38087769 284.07922867 144.3418335 284.30079132 145.33190918 284.52906799 C147.94948923 284.99108459 150.34843661 285.08800052 153 285 C149.08588726 276.84152126 144.93130755 269.08143811 140.10546875 261.41796875 C137.34583404 256.99605995 134.83175523 252.43864261 132.29443359 247.88696289 C129.45110613 242.78881636 126.52885641 237.74162363 123.57421875 232.70703125 C121.32375304 228.83712372 119.15123553 224.92575701 117 221 C116.01 221 115.02 221 114 221 C114.20375244 220.4220166 114.40750488 219.8440332 114.61743164 219.24853516 C115.09743424 216.42733288 114.53525891 215.47631006 113.12109375 213.0234375 C112.69763672 212.27578125 112.27417969 211.528125 111.83789062 210.7578125 C111.37576172 209.97148437 110.91363281 209.18515625 110.4375 208.375 C109.73850586 207.15296875 109.73850586 207.15296875 109.02539062 205.90625 C106.2827041 201.13038973 103.4639388 196.40183832 100.59765625 191.69921875 C98.02352623 187.35026069 95.60038498 182.91824671 93.1574707 178.49462891 C90.2453344 173.226577 87.29473347 167.98204272 84.32055664 162.7487793 C78.71700994 152.88791097 73.24802927 142.96496583 67.87353516 132.97753906 C63.6774968 125.19982379 59.34429284 117.50731289 54.96948242 109.82910156 C50.00104028 101.07500032 45.23001427 92.21872494 40.49243164 83.33837891 C39.93418701 82.29343262 39.37594238 81.24848633 38.80078125 80.171875 C38.06081909 78.7811377 38.06081909 78.7811377 37.3059082 77.36230469 C35.95881304 74.84840207 35.95881304 74.84840207 34 72 C33.34 72 32.68 72 32 72 Z " fill="#FB2B22" transform="translate(219,7)"/>
<path d="M0 0 C3.16993396 2.90773961 5.14689733 5.73150195 7.14453125 9.53125 C7.73129639 10.63774902 8.31806152 11.74424805 8.92260742 12.88427734 C9.55261896 14.08949348 10.18258184 15.29473505 10.8125 16.5 C11.47488616 17.75383096 12.13806745 19.00724214 12.80200195 20.26025391 C14.18266197 22.86749875 15.55987477 25.47651972 16.93457031 28.08691406 C20.15627411 34.19858112 23.42269551 40.28628349 26.6875 46.375 C27.6161084 48.1082251 27.6161084 48.1082251 28.56347656 49.87646484 C32.54492476 57.30254857 36.539578 64.72129461 40.5625 72.125 C41.0268042 72.98270996 41.4911084 73.84041992 41.96948242 74.72412109 C44.28053957 78.96420093 46.66578238 83.13896831 49.16796875 87.26953125 C51.20534122 90.63553938 53.07424025 93.99879013 54.75 97.5625 C57.7192389 103.6352253 61.10685257 109.41556616 64.57324219 115.21313477 C65.19440918 116.25232056 65.19440918 116.25232056 65.828125 117.3125 C66.1984082 117.92738281 66.56869141 118.54226562 66.95019531 119.17578125 C68.04797922 121.08337227 69.02365785 123.0277653 70 125 C76.12433896 136.50661641 82.46691721 147.89957736 88.875 159.25 C89.39747314 160.17659424 89.91994629 161.10318848 90.45825195 162.05786133 C92.91935559 166.40229877 95.41882033 170.71480896 98.0078125 174.984375 C100.61022601 179.29590569 103.04377631 183.68085011 105.43701172 188.11132812 C108.27010942 193.34738123 111.17099235 198.54604417 114.0625 203.75 C114.54780182 204.6235614 114.54780182 204.6235614 115.04290771 205.51477051 C120.59278739 215.50163953 126.19119376 225.46043047 131.828125 235.3984375 C133.95425402 239.1472763 136.06799345 242.90269494 138.171875 246.6640625 C144.03641169 257.13216652 150.02859621 267.51514394 156.1875 277.8125 C157.15985596 279.44227783 157.15985596 279.44227783 158.15185547 281.10498047 C159.05701904 282.60955811 159.05701904 282.60955811 159.98046875 284.14453125 C160.78327271 285.48028198 160.78327271 285.48028198 161.60229492 286.84301758 C162.95344486 289.09270277 162.95344486 289.09270277 165 291 C165.33 291.99 165.66 292.98 166 294 C159.16459376 293.27440802 152.52841561 291.95050302 145.8125 290.5 C144.02066284 290.11448975 144.02066284 290.11448975 142.19262695 289.72119141 C131.65497572 287.42116634 121.16703027 284.92558332 110.6875 282.375 C109.91548248 282.18736084 109.14346497 281.99972168 108.34805298 281.80639648 C98.19595047 279.33341898 88.08485276 276.73484394 78 274 C77.67 274.66 77.34 275.32 77 276 C76.67 275.01 76.34 274.02 76 273 C74.82195801 272.90412598 73.64391602 272.80825195 72.43017578 272.70947266 C65.54106487 271.9381322 58.85296014 270.24127528 52.1171875 268.6484375 C50.65743168 268.30742571 49.19755956 267.96691138 47.73757935 267.62686157 C43.89171543 266.72986983 40.04728592 265.82688096 36.20318604 264.92236328 C32.40699475 264.02986771 28.60976881 263.1418043 24.8125 262.25390625 C24.06766483 262.07971287 23.32282967 261.90551949 22.55542374 261.72604752 C15.11520347 259.98645569 7.67398443 258.25117537 0.2318573 256.51976013 C-2.03363154 255.99216781 -4.29875159 255.46301252 -6.56384277 254.93371582 C-10.22432861 254.07917552 -13.8864856 253.23217185 -17.54998398 252.39064407 C-18.91874498 252.0750843 -20.2869543 251.75712116 -21.65457535 251.43665695 C-23.52977303 250.99770065 -25.40716988 250.56817054 -27.28466797 250.13916016 C-28.34458954 249.89396637 -29.40451111 249.64877258 -30.49655151 249.39614868 C-32.99026226 248.75283396 -32.99026226 248.75283396 -35 250 C-35 249.34 -35 248.68 -35 248 C-41.27 247.01 -47.54 246.02 -54 245 C-52.69439083 242.38878166 -51.71315803 242.02833739 -49 241 C-46.28515625 240.875 -46.28515625 240.875 -43.0625 241 C-37.29458646 241.09783278 -31.73446578 240.74678214 -26.00390625 240.12890625 C-12.02996001 238.71583099 1.98568481 237.91610167 16.00244141 237.06671143 C18.83366598 236.89435973 21.66468364 236.71874058 24.49570084 236.54302025 C39.3266555 235.6227611 54.15861002 234.73645952 69 234 C67.21396706 230.70524627 65.42022632 227.41475222 63.625 224.125 C63.11710937 223.18785156 62.60921875 222.25070313 62.0859375 221.28515625 C61.59609375 220.38925781 61.10625 219.49335938 60.6015625 218.5703125 C59.92601318 217.32918701 59.92601318 217.32918701 59.23681641 216.06298828 C58.04107654 213.87916097 58.04107654 213.87916097 56 212 C55.06199013 210.21951163 54.16720883 208.41609285 53.296875 206.6015625 C50.22162861 200.34856151 46.80665655 194.36382931 43.25 188.375 C39.06824213 181.27045504 34.91750886 174.15726254 30.9375 166.9375 C25.03985223 156.24526493 19.04480933 145.60971481 13 135 C12.49807129 134.11602539 11.99614258 133.23205078 11.47900391 132.32128906 C10.09861475 129.89671795 8.70773797 127.47854912 7.3125 125.0625 C6.90257812 124.34054443 6.49265625 123.61858887 6.0703125 122.87475586 C5.10363451 121.2154432 4.05976147 119.6014651 3 118 C2.34 118 1.68 118 1 118 C-0.57458041 120.02838557 -0.57458041 120.02838557 -2.25 122.75 C-5.81340718 128.25806893 -9.52899094 133.64102004 -13.3125 139 C-22.38098421 151.8818591 -31.18159548 164.94638484 -40 178 C-39.34 178.66 -38.68 179.32 -38 180 C-38.69867188 180.15210938 -39.39734375 180.30421875 -40.1171875 180.4609375 C-44.50244841 182.80212015 -46.46627547 186.51715265 -49.125 190.625 C-50.28487985 192.36867347 -51.44504024 194.11216037 -52.60546875 195.85546875 C-53.17958496 196.7273584 -53.75370117 197.59924805 -54.34521484 198.49755859 C-56.66626785 202.00756056 -59.04687406 205.47467677 -61.4375 208.9375 C-61.87457275 209.57373291 -62.31164551 210.20996582 -62.76196289 210.86547852 C-66.49272412 216.28990184 -70.27778081 221.67565418 -74.0625 227.0625 C-78.53237936 233.4286189 -82.93623002 239.82835885 -87.22265625 246.31933594 C-91.33781221 252.54300002 -95.56521574 258.68892755 -99.79907227 264.83227539 C-100.33072998 265.60563232 -100.8623877 266.37898926 -101.41015625 267.17578125 C-101.88590088 267.86583252 -102.36164551 268.55588379 -102.85180664 269.2668457 C-104.05086656 271.00076823 -104.05086656 271.00076823 -105 273 C-104.16126595 273.03425331 -104.16126595 273.03425331 -103.30558777 273.06919861 C-97.38229962 273.31132285 -91.45907768 273.55502323 -85.53588867 273.79956055 C-83.33766245 273.89011817 -81.13942069 273.98029966 -78.94116211 274.07006836 C-68.13440764 274.51161345 -57.3306306 274.96486687 -46.53125 275.5625 C-40.45398227 275.89665859 -34.39962644 276.14077166 -28.3125 276.0625 C-27.22485352 276.05573242 -27.22485352 276.05573242 -26.11523438 276.04882812 C-24.41011596 276.03753595 -22.7050426 276.01964838 -21 276 C-21 276.66 -21 277.32 -21 278 C-16.21281308 278.02471738 -11.4256633 278.04286825 -6.63842773 278.05493164 C-5.00984042 278.05996065 -3.38125763 278.06678465 -1.75268555 278.07543945 C0.58806472 278.08756769 2.9287553 278.09324263 5.26953125 278.09765625 C5.99775589 278.10281754 6.72598053 278.10797882 7.47627258 278.11329651 C10.59602288 278.11364279 13.01633188 277.99455604 16 277 C16 277.66 16 278.32 16 279 C23.55425764 279.52476527 31.10871646 280.04654685 38.66343689 280.56460571 C42.1720479 280.80529822 45.68058419 281.04698646 49.18896484 281.29101562 C53.22993819 281.57204469 57.27120566 281.84862502 61.3125 282.125 C62.5617627 282.21249512 63.81102539 282.29999023 65.09814453 282.39013672 C72.40792797 282.88654299 72.40792797 282.88654299 79.73046875 282.9921875 C83 283 83 283 85 284 C85 284.66 85 285.32 85 286 C79.47344603 287.48911657 74.12512222 288.47057552 68.4375 289.0625 C66.99860609 289.21921122 65.55980252 289.37675428 64.12109375 289.53515625 C63.4964624 289.600979 62.87183105 289.66680176 62.22827148 289.73461914 C59.14401615 290.10194527 56.07417615 290.55618114 53 291 C49.88322608 291.43786292 46.7657904 291.87096786 43.6484375 292.3046875 C41.80728968 292.56118364 39.96614392 292.81769457 38.125 293.07421875 C35.27378536 293.47135222 32.4225565 293.86838251 29.57128906 294.26513672 C17.02513601 296.0112054 4.48213408 297.77756407 -8.05639648 299.57757568 C-11.29400403 300.0421913 -14.53177107 300.50568756 -17.76953125 300.96923828 C-23.83788731 301.83870434 -29.90555615 302.71285827 -35.97290039 303.58935547 C-38.48313029 303.95133013 -40.99355257 304.31197279 -43.50415039 304.67138672 C-47.17381733 305.19694025 -50.84282381 305.72689998 -54.51171875 306.2578125 C-56.20200447 306.49843918 -56.20200447 306.49843918 -57.92643738 306.743927 C-58.95964615 306.89433441 -59.99285492 307.04474182 -61.05737305 307.19970703 C-61.96666061 307.33055695 -62.87594818 307.46140686 -63.81278992 307.59622192 C-66.0349259 307.90187667 -66.0349259 307.90187667 -68 309 C-69.64485287 309.17260342 -71.29471354 309.29815168 -72.9453125 309.40234375 C-78.34858099 309.81456683 -83.68950924 310.44817899 -89.0546875 311.19140625 C-89.85110657 311.30149017 -90.64752563 311.4115741 -91.46807861 311.5249939 C-94.77877156 311.98551686 -98.08868028 312.45150537 -101.3984375 312.91870117 C-103.84589435 313.26299392 -106.29399556 313.60238641 -108.7421875 313.94140625 C-109.48290497 314.04763809 -110.22362244 314.15386993 -110.98678589 314.26332092 C-115.02391888 314.82077733 -118.92525046 315.10853717 -123 315 C-123.33 315.66 -123.66 316.32 -124 317 C-126.22070312 317.31738281 -126.22070312 317.31738281 -129.28125 317.453125 C-135.09645913 317.81697106 -140.82188682 318.44018801 -146.59375 319.234375 C-147.45961731 319.35332123 -148.32548462 319.47226746 -149.21759033 319.59481812 C-151.97878919 319.97708749 -154.73938582 320.36353312 -157.5 320.75 C-159.43190706 321.01751689 -161.36387411 321.28460087 -163.29589844 321.55126953 C-167.24367614 322.09631961 -171.19123315 322.64293049 -175.13867188 323.19042969 C-183.35552887 324.32786045 -191.57617718 325.43710247 -199.79711914 326.54455566 C-202.22352325 326.87143314 -204.64985894 327.1988137 -207.07617188 327.52636719 C-210.71740265 328.01791408 -214.35868359 328.50908782 -218 329 C-218 325.44174655 -217.35060258 324.77486951 -215.2734375 321.97265625 C-211.81337255 317.17491942 -208.49757415 312.2996891 -205.2265625 307.37109375 C-204.70161194 306.58167389 -204.17666138 305.79225403 -203.63580322 304.97891235 C-202.53357774 303.321086 -201.43175998 301.66298851 -200.33032227 300.00463867 C-190.8024398 285.66166314 -181.21036031 271.36717422 -171.50390625 257.14453125 C-166.94747749 250.46609803 -162.46747699 243.7381029 -158 237 C-156.62559069 234.93710633 -155.25061159 232.87459214 -153.875 230.8125 C-153.2253125 229.83796875 -152.575625 228.8634375 -151.90625 227.859375 C-144.4309082 216.6463623 -144.4309082 216.6463623 -136.95556641 205.43334961 C-136.35147949 204.52721924 -135.74739258 203.62108887 -135.125 202.6875 C-132.75 199.125 -130.375 195.5625 -128 192 C-127.54334961 191.31502441 -127.08669922 190.63004883 -126.61621094 189.92431641 C-126.2040332 189.3060498 -125.79185547 188.6877832 -125.3671875 188.05078125 C-124.97112305 187.45668457 -124.57505859 186.86258789 -124.16699219 186.25048828 C-123.3889974 185.08349609 -122.6110026 183.91650391 -121.83300781 182.74951172 C-121.43694336 182.15541504 -121.04087891 181.56131836 -120.6328125 180.94921875 C-120.22063477 180.33095215 -119.80845703 179.71268555 -119.38378906 179.07568359 C-118.92713867 178.39070801 -118.47048828 177.70573242 -118 177 C-106.52083333 159.78125 -95.04166667 142.5625 -83.5625 125.34375 C-83.16232666 124.74344971 -82.76215332 124.14314941 -82.34985352 123.5246582 C-81.52236653 122.28351019 -80.6947259 121.04246459 -79.86694336 119.80151367 C-77.72155063 116.58486004 -75.5788474 113.36647491 -73.44140625 110.14453125 C-68.56744579 102.80626817 -63.66112303 95.49143895 -58.70703125 88.20703125 C-58.23955978 87.5191452 -57.77208832 86.83125916 -57.29045105 86.12252808 C-54.93342154 82.65434802 -52.57379413 79.18798919 -50.2097168 75.72460938 C-49.32720103 74.42715826 -48.444791 73.12963522 -47.5625 71.83203125 C-47.16186844 71.2471846 -46.76123688 70.66233795 -46.34846497 70.05976868 C-43.69005487 66.1423571 -41.32692322 62.12287489 -39 58 C-38.05235071 56.66456583 -37.07753543 55.34746175 -36.0625 54.0625 C-33.44520458 50.67658111 -31.21568552 47.1738549 -29.078125 43.46875 C-28.54445312 42.74171875 -28.54445312 42.74171875 -28 42 C-27.34 42 -26.68 42 -26 42 C-25.7613623 41.31534668 -25.52272461 40.63069336 -25.27685547 39.92529297 C-23.74243869 36.4099236 -21.7211234 33.35170547 -19.5703125 30.1953125 C-19.13870819 29.5531076 -18.70710388 28.91090271 -18.26242065 28.24923706 C-16.8876626 26.20483089 -15.50679515 24.16465504 -14.125 22.125 C-12.75112849 20.09197945 -11.37867559 18.05803805 -10.00900269 16.02218628 C-9.15902248 14.75929029 -8.30658246 13.49804489 -7.45120239 12.23880005 C-4.76756636 8.25786844 -2.33976199 4.19282671 0 0 Z M0 12 C-1.46710527 13.90099426 -2.80116641 15.79614447 -4.12109375 17.796875 C-4.53206802 18.40785034 -4.9430423 19.01882568 -5.36647034 19.64831543 C-6.72979653 21.67805304 -8.08349207 23.714037 -9.4375 25.75 C-10.39575724 27.17984956 -11.35475132 28.60920556 -12.31445312 30.03808594 C-14.2786534 32.96364773 -16.23978061 35.89123272 -18.19873047 38.8203125 C-22.10187297 44.6510577 -26.05195462 50.44958529 -30 56.25 C-38.38144754 68.58571853 -46.72243071 80.94878697 -55.0625 93.3125 C-55.68165283 94.23011108 -56.30080566 95.14772217 -56.9387207 96.09313965 C-63.93227638 106.45890364 -70.90869402 116.83539399 -77.83322144 127.24740601 C-78.9956614 128.99348307 -80.16061559 130.73785458 -81.32641602 132.48168945 C-88.77005256 143.61988259 -96.13402075 154.8103581 -103.5 166 C-111.2423864 177.76144112 -118.99146107 189.51753396 -126.81512451 201.22509766 C-128.89796876 204.34512603 -130.97384562 207.46978681 -133.05078125 210.59375 C-142.70531934 225.10710266 -152.40549354 239.58727805 -162.19647217 254.00897217 C-169.90312647 265.36167762 -177.53797269 276.76006925 -185.13134766 288.18896484 C-188.29085054 292.94184127 -191.45833134 297.68939626 -194.625 302.4375 C-195.72139082 304.08200681 -196.81774685 305.72653682 -197.9140625 307.37109375 C-200.57991536 311.36987305 -203.24576823 315.36865234 -205.91162109 319.36743164 C-206.45036865 320.17555298 -206.45036865 320.17555298 -207 321 C-196.24553637 320.47264515 -185.65751632 319.42449492 -175 317.875 C-173.44309947 317.65350965 -171.88613079 317.43249786 -170.32910156 317.21191406 C-165.21788603 316.484972 -160.10873826 315.7441306 -155 315 C-154.12690186 314.87282593 -153.25380371 314.74565186 -152.35424805 314.61462402 C-144.82286813 313.51671405 -137.29198377 312.41540565 -129.76138306 311.31216431 C-111.74456071 308.67355122 -93.71887258 306.09955424 -75.6875 303.5625 C-75.0190506 303.46841732 -74.3506012 303.37433464 -73.66189575 303.27740097 C-57.85395405 301.05319176 -42.04215345 298.85930719 -26.22265625 296.71875 C-25.54362936 296.62684828 -24.86460247 296.53494656 -24.16499901 296.44025993 C-17.03735884 295.47597472 -9.90909838 294.51641256 -2.7800293 293.56274414 C-1.60399643 293.40475342 -0.42796356 293.2467627 0.78370667 293.08398438 C2.9485585 292.79321467 5.11360972 292.50392312 7.27891541 292.21655273 C13.35201748 291.39962636 19.39223467 290.45922973 25.43034363 289.4138031 C29.44301376 288.76762513 33.45072563 288.5590584 37.50390625 288.34375 C40.24589368 288.15095919 40.24589368 288.15095919 43 286 C37.54653651 285.1279653 32.16195926 284.71925758 26.64794922 284.45922852 C25.73409958 284.41352722 24.82024994 284.36782593 23.87870789 284.32073975 C20.85418107 284.17030537 17.82944834 284.02455322 14.8046875 283.87890625 C12.65803802 283.77327951 10.51140129 283.66739362 8.36477661 283.56126404 C3.84060984 283.33825438 -0.68365422 283.11737972 -5.20800781 282.89819336 C-10.86056764 282.62433115 -16.51294401 282.34690322 -22.1652565 282.06798744 C-40.81897062 281.14803323 -59.47249229 280.22833 -78.13183594 279.42919922 C-79.17878317 279.38407542 -80.2257304 279.33895163 -81.30440331 279.29246044 C-86.25686941 279.0793925 -91.20944205 278.87029993 -96.16238403 278.66859436 C-97.91799429 278.59420829 -99.67359965 278.51970641 -101.42919922 278.44506836 C-102.21453411 278.41462622 -102.999869 278.38418407 -103.80900192 278.35281944 C-107.94465995 278.17314383 -111.93353455 277.77916542 -116 277 C-115.64808594 276.51756836 -115.29617187 276.03513672 -114.93359375 275.53808594 C-108.87157728 267.21666255 -102.853502 258.89495273 -97.19921875 250.2890625 C-94.31947809 245.98223898 -91.35027466 241.74119388 -88.375 237.5 C-87.77727783 236.64784912 -87.17955566 235.79569824 -86.5637207 234.91772461 C-84.09772709 231.4050355 -81.62923351 227.89411244 -79.15917969 224.38427734 C-72.94946555 215.55863382 -66.76858511 206.72669017 -60.82495117 197.71923828 C-56.74141787 191.55625819 -52.48844531 185.51445723 -48.23779297 179.46606445 C-44.23334733 173.76718018 -40.26658689 168.04471528 -36.33105469 162.2980957 C-32.19042564 156.25955286 -28.00077059 150.25555899 -23.8125 144.25 C-19.73975028 138.40831147 -15.67189395 132.56924846 -11.75 126.625 C-8.27189694 121.35491775 -4.63836008 116.20481791 -0.98779297 111.05371094 C9.5494444 96.17799576 19.98763752 81.23515733 30 66 C21.03106238 47.81825637 11.72568224 29.78915697 2 12 C1.34 12 0.68 12 0 12 Z M32 72 C30.69647674 73.49519894 30.69647674 73.49519894 29.41796875 75.48828125 C28.90387451 76.24906982 28.38978027 77.0098584 27.86010742 77.79370117 C27.30814697 78.62490479 26.75618652 79.4561084 26.1875 80.3125 C25.02103816 82.04440881 23.85436497 83.77617528 22.6875 85.5078125 C22.08421875 86.40790039 21.4809375 87.30798828 20.859375 88.23535156 C17.83051855 92.73886659 14.7574271 97.21193019 11.6875 101.6875 C10.58702728 103.29542764 9.48674715 104.90348711 8.38671875 106.51171875 C7.59114583 107.67447917 6.79557292 108.83723958 6 110 C13.68332784 126.25036111 22.79940669 141.74074773 32.08203125 157.12109375 C35.17343989 162.25559192 38.12599209 167.46324755 41.0625 172.6875 C41.62340332 173.68225342 42.18430664 174.67700684 42.76220703 175.7019043 C44.50939369 178.80056397 46.25491961 181.90015372 48 185 C55.00817309 197.44820159 62.05404429 209.8731808 69.1875 222.25 C69.8357373 223.37575439 70.48397461 224.50150879 71.15185547 225.66137695 C71.75529785 226.70640381 72.35874023 227.75143066 72.98046875 228.828125 C73.78327271 230.2188623 73.78327271 230.2188623 74.60229492 231.63769531 C75.67981469 233.45884488 76.82623098 235.23934646 78 237 C78.66 237 79.32 237 80 237 C79.67 237.66 79.34 238.32 79 239 C77.71053467 239.07516846 76.42106934 239.15033691 75.0925293 239.2277832 C59.72676585 240.12608717 44.3628108 241.0525667 29 242 C27.90212158 242.06743408 26.80424316 242.13486816 25.6730957 242.2043457 C19.53814755 242.58232829 13.40407293 242.97117085 7.27090454 243.37704468 C5.38161542 243.50070465 3.49210335 243.62100406 1.60238647 243.73794556 C-1.01707343 243.90081578 -3.63545213 244.07569023 -6.25390625 244.25390625 C-7.03066711 244.29968811 -7.80742798 244.34546997 -8.60772705 244.39263916 C-10.41187538 244.52213985 -12.20848499 244.75060954 -14 245 C-14.495 245.99 -14.495 245.99 -15 247 C-13.90175652 247.25190346 -13.90175652 247.25190346 -12.78132629 247.50889587 C-3.45753957 249.6480959 5.86534295 251.7912098 15.1875 253.9375 C15.93683304 254.11001659 16.68616608 254.28253319 17.45820618 254.46027756 C34.57795371 258.40270944 51.69549745 262.34485126 68.75 266.5625 C84.22481484 270.38244622 99.74570523 274.00253807 115.27648926 277.58688354 C118.0767737 278.23319118 120.87646515 278.8819758 123.67565918 279.5329895 C127.60518594 280.44656624 131.53681118 281.3507665 135.46875 282.25390625 C136.65966248 282.53153809 137.85057495 282.80916992 139.07757568 283.09521484 C140.18054993 283.34682373 141.28352417 283.59843262 142.41992188 283.85766602 C143.38087769 284.07922867 144.3418335 284.30079132 145.33190918 284.52906799 C147.94948923 284.99108459 150.34843661 285.08800052 153 285 C149.08588726 276.84152126 144.93130755 269.08143811 140.10546875 261.41796875 C137.34583404 256.99605995 134.83175523 252.43864261 132.29443359 247.88696289 C129.45110613 242.78881636 126.52885641 237.74162363 123.57421875 232.70703125 C121.32375304 228.83712372 119.15123553 224.92575701 117 221 C116.01 221 115.02 221 114 221 C114.20375244 220.4220166 114.40750488 219.8440332 114.61743164 219.24853516 C115.09743424 216.42733288 114.53525891 215.47631006 113.12109375 213.0234375 C112.69763672 212.27578125 112.27417969 211.528125 111.83789062 210.7578125 C111.37576172 209.97148437 110.91363281 209.18515625 110.4375 208.375 C109.73850586 207.15296875 109.73850586 207.15296875 109.02539062 205.90625 C106.2827041 201.13038973 103.4639388 196.40183832 100.59765625 191.69921875 C98.02352623 187.35026069 95.60038498 182.91824671 93.1574707 178.49462891 C90.2453344 173.226577 87.29473347 167.98204272 84.32055664 162.7487793 C78.71700994 152.88791097 73.24802927 142.96496583 67.87353516 132.97753906 C63.6774968 125.19982379 59.34429284 117.50731289 54.96948242 109.82910156 C50.00104028 101.07500032 45.23001427 92.21872494 40.49243164 83.33837891 C39.93418701 82.29343262 39.37594238 81.24848633 38.80078125 80.171875 C38.06081909 78.7811377 38.06081909 78.7811377 37.3059082 77.36230469 C35.95881304 74.84840207 35.95881304 74.84840207 34 72 C33.34 72 32.68 72 32 72 Z " fill="#140E0E" transform="translate(219,7)"/>
<path d="M0 0 C10.24155918 -0.11638135 20.45286398 0.02336815 30.6875 0.4375 C32.20923828 0.49635376 32.20923828 0.49635376 33.76171875 0.55639648 C38.90680451 0.77918486 43.91891663 1.15433717 49 2 C45.65234419 4.23177054 44.52938715 4.24633323 40.625 4.1875 C39.22121094 4.17783203 39.22121094 4.17783203 37.7890625 4.16796875 C35 4 35 4 32.76635742 3.52294922 C29.48919731 2.90343841 26.27782447 2.67730794 22.94921875 2.46484375 C22.29041214 2.42186661 21.63160553 2.37888947 20.95283508 2.33460999 C18.86457818 2.19910146 16.7760609 2.06823067 14.6875 1.9375 C13.26495418 1.84601014 11.84242787 1.75421643 10.41992188 1.66210938 C6.94683335 1.43788997 3.473496 1.21782672 0 1 C0 0.67 0 0.34 0 0 Z " fill="#ED3E2E" transform="translate(213,291)"/>
<path d="M0 0 C0.66 0 1.32 0 2 0 C2.33 1.32 2.66 2.64 3 4 C2.25363281 4.38800781 1.50726563 4.77601562 0.73828125 5.17578125 C-2.31149028 7.20751207 -3.79890911 9.14737257 -5.8125 12.1875 C-6.41707031 13.08855469 -7.02164063 13.98960938 -7.64453125 14.91796875 C-8.31548828 15.94857422 -8.31548828 15.94857422 -9 17 C-9.66 16.67 -10.32 16.34 -11 16 C-9.21930777 13.32585011 -7.42369436 10.66206765 -5.625 8 C-5.11710938 7.236875 -4.60921875 6.47375 -4.0859375 5.6875 C-3.59609375 4.965625 -3.10625 4.24375 -2.6015625 3.5 C-2.15119629 2.8296875 -1.70083008 2.159375 -1.23681641 1.46875 C-0.82866699 0.9840625 -0.42051758 0.499375 0 0 Z " fill="#E73B2E" transform="translate(219,19)"/>
<path d="M0 0 C0.33 0.66 0.66 1.32 1 2 C-0.328125 4.42578125 -0.328125 4.42578125 -2.25 7.3125 C-4.995056 11.46194226 -4.995056 11.46194226 -7.546875 15.73046875 C-9 18 -9 18 -12 20 C-10.37885498 15.20178341 -7.70723241 11.3327141 -4.875 7.1875 C-4.40707031 6.49462891 -3.93914062 5.80175781 -3.45703125 5.08789062 C-2.30887563 3.38908895 -1.15500633 1.69415136 0 0 Z " fill="#E93D30" transform="translate(101,195)"/>
<path d="M0 0 C0.71484375 1.734375 0.71484375 1.734375 1 4 C-0.43359375 6.140625 -0.43359375 6.140625 -2.4375 8.25 C-3.09621094 8.95640625 -3.75492188 9.6628125 -4.43359375 10.390625 C-4.95050781 10.92171875 -5.46742188 11.4528125 -6 12 C-6 8.36804504 -5.04546845 7.25286089 -3 4.3125 C-2.443125 3.50425781 -1.88625 2.69601563 -1.3125 1.86328125 C-0.879375 1.24839844 -0.44625 0.63351563 0 0 Z " fill="#F03A2E" transform="translate(159,108)"/>
<path d="M0 0 C0.33 0.66 0.66 1.32 1 2 C0.109375 3.875 0.109375 3.875 -1.25 6 C-1.90742187 7.051875 -1.90742187 7.051875 -2.578125 8.125 C-4 10 -4 10 -7 12 C-5.44298069 7.32894208 -2.91552627 3.91294315 0 0 Z " fill="#EC3C2E" transform="translate(113,177)"/>
<path d="M0 0 C0.33 1.32 0.66 2.64 1 4 C-1.97 6.475 -1.97 6.475 -5 9 C-3.7508258 5.54074837 -2.32472205 2.85306797 0 0 Z " fill="#F2392C" transform="translate(79,228)"/>
<path d="M0 0 C0.75 1.6875 0.75 1.6875 1 4 C-0.8125 6.75 -0.8125 6.75 -3 9 C-3.66 9 -4.32 9 -5 9 C-3.7508258 5.54074837 -2.32472205 2.85306797 0 0 Z " fill="#F43C2E" transform="translate(151,120)"/>
<path d="M0 0 C0.33 1.32 0.66 2.64 1 4 C-1.97 6.475 -1.97 6.475 -5 9 C-3.7508258 5.54074837 -2.32472205 2.85306797 0 0 Z " fill="#EC382C" transform="translate(175,84)"/>
<path d="M0 0 C0.99 0.495 0.99 0.495 2 1 C2 2.32 2 3.64 2 5 C2.66 5.33 3.32 5.66 4 6 C2.68 6.33 1.36 6.66 0 7 C0 4.69 0 2.38 0 0 Z " fill="#515151" transform="translate(248,173)"/>
<path d="M0 0 C0.66 1.32 1.32 2.64 2 4 C1.01 4.495 1.01 4.495 0 5 C-0.5625 3.0625 -0.5625 3.0625 -1 1 C-0.67 0.67 -0.34 0.34 0 0 Z " fill="#C93535" transform="translate(42,264)"/>
<path d="M0 0 C0.99 0.495 0.99 0.495 2 1 C1.34 2.32 0.68 3.64 0 5 C0 3.35 0 1.7 0 0 Z " fill="#464646" transform="translate(280,229)"/>
<path d="M0 0 C0.66 0 1.32 0 2 0 C1.34 1.32 0.68 2.64 0 4 C0 2.68 0 1.36 0 0 Z " fill="#945F5F" transform="translate(44,264)"/>
<path d="M0 0 C0.99 0 1.98 0 3 0 C2.67 0.99 2.34 1.98 2 3 C1.34 2.01 0.68 1.02 0 0 Z " fill="#BF3434" transform="translate(107,168)"/>
<path d="M0 0 C0.99 0.495 0.99 0.495 2 1 C1.67 1.99 1.34 2.98 1 4 C0.67 2.68 0.34 1.36 0 0 Z " fill="#484848" transform="translate(280,132)"/>
<path d="M0 0 C0.66 0.33 1.32 0.66 2 1 C1.01 1.99 0.02 2.98 -1 4 C-0.67 2.68 -0.34 1.36 0 0 Z " fill="#F00E0E" transform="translate(178,65)"/>
<path d="M0 0 C1.32 0.33 2.64 0.66 4 1 C3.01 1.33 2.02 1.66 1 2 C0.67 1.34 0.34 0.68 0 0 Z " fill="#CB2626" transform="translate(42,331)"/>
<path d="M0 0 C0.99 0.33 1.98 0.66 3 1 C2.01 1.33 1.02 1.66 0 2 C0 1.34 0 0.68 0 0 Z " fill="#9D5349" transform="translate(89,324)"/>
<path d="M0 0 C0.99 0.33 1.98 0.66 3 1 C2.01 1 1.02 1 0 1 C0 0.67 0 0.34 0 0 Z " fill="#FF0000" transform="translate(98,323)"/>
<path d="M0 0 C0.66 0.66 1.32 1.32 2 2 C1.01 1.67 0.02 1.34 -1 1 C-0.67 0.67 -0.34 0.34 0 0 Z " fill="#E91515" transform="translate(41,269)"/>
<path d="M0 0 C0.99 0.495 0.99 0.495 2 1 C1.67 1.66 1.34 2.32 1 3 C0.67 2.01 0.34 1.02 0 0 Z " fill="#1F1F1F" transform="translate(353,265)"/>
<path d="M0 0 C0.99 0.495 0.99 0.495 2 1 C1.67 1.66 1.34 2.32 1 3 C0.67 2.01 0.34 1.02 0 0 Z " fill="#545454" transform="translate(320,205)"/>
<path d="M0 0 C0.33 0.99 0.66 1.98 1 3 C0.34 2.67 -0.32 2.34 -1 2 C-0.67 1.34 -0.34 0.68 0 0 Z " fill="#353535" transform="translate(257,188)"/>
<path d="M0 0 C0.99 0.495 0.99 0.495 2 1 C1.67 1.66 1.34 2.32 1 3 C0.67 2.01 0.34 1.02 0 0 Z " fill="#3F3F3F" transform="translate(274,121)"/>
<path d="M0 0 C0.99 0.33 1.98 0.66 3 1 C2.01 1 1.02 1 0 1 C0 0.67 0 0.34 0 0 Z " fill="#9F5F5F" transform="translate(185,47)"/>
<path d="M0 0 C3 1 3 1 3 1 Z " fill="#8D4646" transform="translate(33,332)"/>
<path d="M0 0 C3 1 3 1 3 1 Z " fill="#1C1C1C" transform="translate(267,299)"/>
<path d="M0 0 C0.66 0 1.32 0 2 0 C1.67 0.66 1.34 1.32 1 2 C0.67 1.34 0.34 0.68 0 0 Z " fill="#545454" transform="translate(279,297)"/>
<path d="M0 0 C3 1 3 1 3 1 Z " fill="#3F3F3F" transform="translate(333,291)"/>
<path d="M0 0 C3 1 3 1 3 1 Z " fill="#2A2A2A" transform="translate(329,290)"/>
<path d="M0 0 C3 1 3 1 3 1 Z " fill="#7F6969" transform="translate(186,282)"/>
<path d="M0 0 C0.33 0.66 0.66 1.32 1 2 C0.34 1.67 -0.32 1.34 -1 1 C-0.67 0.67 -0.34 0.34 0 0 Z " fill="#A95454" transform="translate(126,278)"/>
<path d="M0 0 C3 1 3 1 3 1 Z " fill="#767676" transform="translate(200,260)"/>
<path d="M0 0 C3 1 3 1 3 1 Z " fill="#2A2A2A" transform="translate(187,257)"/>
<path d="M0 0 C3 1 3 1 3 1 Z " fill="#2A2A2A" transform="translate(254,250)"/>
<path d="M0 0 C0.66 0 1.32 0 2 0 C1.67 0.66 1.34 1.32 1 2 C0.67 1.34 0.34 0.68 0 0 Z " fill="#636363" transform="translate(350,240)"/>
<path d="" fill="#2A2A2A" transform="translate(0,0)"/>
<path d="" fill="#000000" transform="translate(0,0)"/>
<path d="M0 0 C0.99 0.495 0.99 0.495 2 1 C1.01 1.495 1.01 1.495 0 2 C0 1.34 0 0.68 0 0 Z " fill="#D42A2A" transform="translate(88,193)"/>
<path d="M0 0 C0.33 0.66 0.66 1.32 1 2 C0.34 1.67 -0.32 1.34 -1 1 C-0.67 0.67 -0.34 0.34 0 0 Z " fill="#E21C1C" transform="translate(94,191)"/>
<path d="M0 0 C0.33 0.66 0.66 1.32 1 2 C0.34 1.67 -0.32 1.34 -1 1 C-0.67 0.67 -0.34 0.34 0 0 Z " fill="#464646" transform="translate(253,181)"/>
<path d="M0 0 C0.33 0.66 0.66 1.32 1 2 C0.34 1.67 -0.32 1.34 -1 1 C-0.67 0.67 -0.34 0.34 0 0 Z " fill="#000000" transform="translate(285,141)"/>
<path d="M0 0 C3 1 3 1 3 1 Z " fill="#D42A2A" transform="translate(152,102)"/>
<path d="M0 0 C0.66 0 1.32 0 2 0 C1.67 0.66 1.34 1.32 1 2 C0.67 1.34 0.34 0.68 0 0 Z " fill="#1C1C1C" transform="translate(256,94)"/>
<path d="M0 0 C0.66 0.66 1.32 1.32 2 2 C1.34 2 0.68 2 0 2 C0 1.34 0 0.68 0 0 Z " fill="#D42A2A" transform="translate(184,48)"/>
<path d="" fill="#FF0000" transform="translate(0,0)"/>
<path d="M0 0 C2 1 2 1 2 1 Z " fill="#FF0000" transform="translate(50,330)"/>
<path d="M0 0 C2 1 2 1 2 1 Z " fill="#946A6A" transform="translate(102,322)"/>
<path d="" fill="#3F3F3F" transform="translate(0,0)"/>
<path d="M0 0 C2 1 2 1 2 1 Z " fill="#6A6A6A" transform="translate(362,298)"/>
<path d="M0 0 C2 1 2 1 2 1 Z " fill="#BF3F3F" transform="translate(24,294)"/>
<path d="" fill="#7F7F7F" transform="translate(0,0)"/>
<path d="" fill="#BF3F3F" transform="translate(0,0)"/>
<path d="M0 0 C2 1 2 1 2 1 Z " fill="#5F5F5F" transform="translate(353,287)"/>
<path d="M0 0 C2 1 2 1 2 1 Z " fill="#3F3F3F" transform="translate(304,284)"/>
<path d="M0 0 C2 1 2 1 2 1 Z " fill="#2A2A2A" transform="translate(204,283)"/>
<path d="M0 0 C2 1 2 1 2 1 Z " fill="#6A6A6A" transform="translate(334,282)"/>
<path d="M0 0 C2 1 2 1 2 1 Z " fill="#BF3F3F" transform="translate(155,280)"/>
<path d="M0 0 C2 1 2 1 2 1 Z " fill="#6A6A6A" transform="translate(280,278)"/>
<path d="M0 0 C2 1 2 1 2 1 Z " fill="#3F3F3F" transform="translate(266,275)"/>
<path d="M0 0 C2 1 2 1 2 1 Z " fill="#000000" transform="translate(235,270)"/>
<path d="" fill="#000000" transform="translate(0,0)"/>
<path d="M0 0 C2 1 2 1 2 1 Z " fill="#3F3F3F" transform="translate(204,261)"/>
<path d="M0 0 C2 1 2 1 2 1 Z " fill="#000000" transform="translate(193,258)"/>
<path d="M0 0 C2 1 2 1 2 1 Z " fill="#7F0000" transform="translate(138,244)"/>
<path d="" fill="#FF0000" transform="translate(0,0)"/>
<path d="" fill="#3F3F3F" transform="translate(0,0)"/>
<path d="" fill="#3F3F3F" transform="translate(0,0)"/>
<path d="" fill="#000000" transform="translate(0,0)"/>
<path d="M0 0 C2 1 2 1 2 1 Z " fill="#BF3F3F" transform="translate(92,194)"/>
<path d="" fill="#6A6A6A" transform="translate(0,0)"/>
<path d="M0 0 C2 1 2 1 2 1 Z " fill="#3F3F3F" transform="translate(243,165)"/>
<path d="M0 0 C2 1 2 1 2 1 Z " fill="#000000" transform="translate(297,164)"/>
<path d="" fill="#3F3F3F" transform="translate(0,0)"/>
<path d="" fill="#2A2A2A" transform="translate(0,0)"/>
<path d="M0 0 C2 1 2 1 2 1 Z " fill="#000000" transform="translate(238,158)"/>
<path d="" fill="#000000" transform="translate(0,0)"/>
<path d="M0 0 C2 1 2 1 2 1 Z " fill="#BF3F3F" transform="translate(120,150)"/>
<path d="" fill="#3F3F3F" transform="translate(0,0)"/>
<path d="" fill="#FF0000" transform="translate(0,0)"/>
<path d="" fill="#3F3F3F" transform="translate(0,0)"/>
<path d="" fill="#7F7F7F" transform="translate(0,0)"/>
<path d="" fill="#D42A2A" transform="translate(0,0)"/>
<path d="M0 0 C2 1 2 1 2 1 Z " fill="#3F3F3F" transform="translate(232,110)"/>
<path d="" fill="#6A6A6A" transform="translate(0,0)"/>
<path d="M0 0 C2 1 2 1 2 1 Z " fill="#2A2A2A" transform="translate(250,83)"/>
<path d="M0 0 C2 1 2 1 2 1 Z " fill="#BF3F3F" transform="translate(169,78)"/>
<path d="" fill="#D42A2A" transform="translate(0,0)"/>
<path d="" fill="#BF3F3F" transform="translate(0,0)"/>
<path d="" fill="#3F3F3F" transform="translate(0,0)"/>
<path d="M0 0 C2 1 2 1 2 1 Z " fill="#000000" transform="translate(233,28)"/>
<path d="" fill="#727272" transform="translate(0,0)"/>
<path d="" fill="#3F1F1F" transform="translate(0,0)"/>
<path d="" fill="#7F4A6A" transform="translate(0,0)"/>
<path d="" fill="#FF0000" transform="translate(0,0)"/>
<path d="" fill="#FF0000" transform="translate(0,0)"/>
<path d="" fill="#FF0000" transform="translate(0,0)"/>
<path d="" fill="#7F7F7F" transform="translate(0,0)"/>
<path d="" fill="#7F7F7F" transform="translate(0,0)"/>
<path d="" fill="#FF0000" transform="translate(0,0)"/>
<path d="" fill="#FF0000" transform="translate(0,0)"/>
<path d="" fill="#AA5555" transform="translate(0,0)"/>
<path d="" fill="#FF0000" transform="translate(0,0)"/>
<path d="" fill="#FF0000" transform="translate(0,0)"/>
<path d="" fill="#FF0000" transform="translate(0,0)"/>
<path d="" fill="#AA5555" transform="translate(0,0)"/>
<path d="" fill="#FF0000" transform="translate(0,0)"/>
<path d="" fill="#7F7F7F" transform="translate(0,0)"/>
<path d="" fill="#7F7F7F" transform="translate(0,0)"/>
<path d="" fill="#FF0000" transform="translate(0,0)"/>
<path d="" fill="#FF0000" transform="translate(0,0)"/>
<path d="" fill="#996633" transform="translate(0,0)"/>
<path d="" fill="#7F7F7F" transform="translate(0,0)"/>
<path d="" fill="#7F7F7F" transform="translate(0,0)"/>
<path d="" fill="#000000" transform="translate(0,0)"/>
<path d="" fill="#FF0000" transform="translate(0,0)"/>
<path d="" fill="#FF0000" transform="translate(0,0)"/>
<path d="" fill="#AA5555" transform="translate(0,0)"/>
<path d="" fill="#7F7F7F" transform="translate(0,0)"/>
<path d="" fill="#FF0000" transform="translate(0,0)"/>
<path d="" fill="#FF0000" transform="translate(0,0)"/>
<path d="" fill="#7F7F7F" transform="translate(0,0)"/>
<path d="" fill="#7F7F7F" transform="translate(0,0)"/>
<path d="" fill="#FF0000" transform="translate(0,0)"/>
<path d="" fill="#FF0000" transform="translate(0,0)"/>
<path d="" fill="#996666" transform="translate(0,0)"/>
<path d="" fill="#FF0000" transform="translate(0,0)"/>
<path d="" fill="#7F7F7F" transform="translate(0,0)"/>
<path d="" fill="#7F7F7F" transform="translate(0,0)"/>
<path d="" fill="#FF0000" transform="translate(0,0)"/>
<path d="" fill="#7F7F7F" transform="translate(0,0)"/>
<path d="" fill="#7F7F7F" transform="translate(0,0)"/>
<path d="" fill="#000000" transform="translate(0,0)"/>
<path d="" fill="#FF0000" transform="translate(0,0)"/>
<path d="" fill="#000000" transform="translate(0,0)"/>
<path d="" fill="#000000" transform="translate(0,0)"/>
<path d="" fill="#7F7F7F" transform="translate(0,0)"/>
<path d="" fill="#000000" transform="translate(0,0)"/>
<path d="" fill="#000000" transform="translate(0,0)"/>
<path d="" fill="#000000" transform="translate(0,0)"/>
<path d="" fill="#555555" transform="translate(0,0)"/>
<path d="" fill="#7F7F7F" transform="translate(0,0)"/>
<path d="" fill="#000000" transform="translate(0,0)"/>
<path d="" fill="#000000" transform="translate(0,0)"/>
<path d="" fill="#000000" transform="translate(0,0)"/>
<path d="" fill="#666666" transform="translate(0,0)"/>
<path d="" fill="#000000" transform="translate(0,0)"/>
<path d="" fill="#000000" transform="translate(0,0)"/>
<path d="" fill="#7F7F7F" transform="translate(0,0)"/>
<path d="" fill="#000000" transform="translate(0,0)"/>
<path d="" fill="#7F7F7F" transform="translate(0,0)"/>
<path d="" fill="#000000" transform="translate(0,0)"/>
<path d="" fill="#000000" transform="translate(0,0)"/>
<path d="" fill="#FF0000" transform="translate(0,0)"/>
<path d="" fill="#000000" transform="translate(0,0)"/>
<path d="" fill="#3F3F3F" transform="translate(0,0)"/>
<path d="" fill="#666666" transform="translate(0,0)"/>
<path d="" fill="#FF0000" transform="translate(0,0)"/>
<path d="" fill="#7F7F7F" transform="translate(0,0)"/>
<path d="" fill="#7F7F7F" transform="translate(0,0)"/>
<path d="" fill="#000000" transform="translate(0,0)"/>
<path d="" fill="#000000" transform="translate(0,0)"/>
<path d="" fill="#000000" transform="translate(0,0)"/>
<path d="" fill="#FF0000" transform="translate(0,0)"/>
<path d="" fill="#7F7F7F" transform="translate(0,0)"/>
<path d="" fill="#000000" transform="translate(0,0)"/>
<path d="" fill="#FF0000" transform="translate(0,0)"/>
<path d="" fill="#FF0000" transform="translate(0,0)"/>
<path d="" fill="#AA5555" transform="translate(0,0)"/>
<path d="" fill="#FF0000" transform="translate(0,0)"/>
<path d="" fill="#FF0000" transform="translate(0,0)"/>
<path d="" fill="#7F7F7F" transform="translate(0,0)"/>
<path d="" fill="#000000" transform="translate(0,0)"/>
<path d="" fill="#FF0000" transform="translate(0,0)"/>
<path d="" fill="#FF0000" transform="translate(0,0)"/>
<path d="" fill="#000000" transform="translate(0,0)"/>
<path d="" fill="#FF0000" transform="translate(0,0)"/>
<path d="" fill="#FF0000" transform="translate(0,0)"/>
<path d="" fill="#FF0000" transform="translate(0,0)"/>
<path d="" fill="#555555" transform="translate(0,0)"/>
<path d="" fill="#996633" transform="translate(0,0)"/>
<path d="" fill="#FF0000" transform="translate(0,0)"/>
<path d="" fill="#000000" transform="translate(0,0)"/>
<path d="" fill="#000000" transform="translate(0,0)"/>
<path d="" fill="#000000" transform="translate(0,0)"/>
<path d="" fill="#000000" transform="translate(0,0)"/>
<path d="" fill="#7F7F7F" transform="translate(0,0)"/>
<path d="" fill="#7F7F7F" transform="translate(0,0)"/>
<path d="" fill="#000000" transform="translate(0,0)"/>
<path d="" fill="#000000" transform="translate(0,0)"/>
<path d="" fill="#FF0000" transform="translate(0,0)"/>
<path d="" fill="#000000" transform="translate(0,0)"/>
<path d="" fill="#7F7F7F" transform="translate(0,0)"/>
<path d="" fill="#FF0000" transform="translate(0,0)"/>
<path d="" fill="#7F7F7F" transform="translate(0,0)"/>
<path d="" fill="#555555" transform="translate(0,0)"/>
<path d="" fill="#000000" transform="translate(0,0)"/>
<path d="" fill="#000000" transform="translate(0,0)"/>
<path d="" fill="#FF0000" transform="translate(0,0)"/>
<path d="" fill="#000000" transform="translate(0,0)"/>
<path d="" fill="#7F7F7F" transform="translate(0,0)"/>
<path d="" fill="#000000" transform="translate(0,0)"/>
<path d="" fill="#000000" transform="translate(0,0)"/>
<path d="" fill="#000000" transform="translate(0,0)"/>
<path d="" fill="#AA5555" transform="translate(0,0)"/>
<path d="" fill="#7F7F7F" transform="translate(0,0)"/>
<path d="" fill="#7F7F3F" transform="translate(0,0)"/>
<path d="" fill="#FF0000" transform="translate(0,0)"/>
<path d="" fill="#FF0000" transform="translate(0,0)"/>
<path d="" fill="#FF0000" transform="translate(0,0)"/>
<path d="" fill="#FF0000" transform="translate(0,0)"/>
<path d="" fill="#FF0000" transform="translate(0,0)"/>
<path d="" fill="#7F7F7F" transform="translate(0,0)"/>
<path d="" fill="#FF0000" transform="translate(0,0)"/>
<path d="" fill="#000000" transform="translate(0,0)"/>
<path d="" fill="#555555" transform="translate(0,0)"/>
<path d="" fill="#FF0000" transform="translate(0,0)"/>
<path d="" fill="#FF0000" transform="translate(0,0)"/>
<path d="" fill="#7F7F7F" transform="translate(0,0)"/>
<path d="" fill="#000000" transform="translate(0,0)"/>
<path d="" fill="#555555" transform="translate(0,0)"/>
<path d="" fill="#000000" transform="translate(0,0)"/>
<path d="" fill="#7F7F7F" transform="translate(0,0)"/>
<path d="" fill="#FF0000" transform="translate(0,0)"/>
<path d="" fill="#000000" transform="translate(0,0)"/>
<path d="" fill="#FF0000" transform="translate(0,0)"/>
<path d="" fill="#FF0000" transform="translate(0,0)"/>
<path d="" fill="#7F7F7F" transform="translate(0,0)"/>
<path d="" fill="#000000" transform="translate(0,0)"/>
<path d="" fill="#7F7F7F" transform="translate(0,0)"/>
<path d="" fill="#000000" transform="translate(0,0)"/>
<path d="" fill="#555555" transform="translate(0,0)"/>
<path d="" fill="#FF0000" transform="translate(0,0)"/>
<path d="" fill="#000000" transform="translate(0,0)"/>
<path d="" fill="#FF0000" transform="translate(0,0)"/>
<path d="" fill="#000000" transform="translate(0,0)"/>
<path d="" fill="#7F7F7F" transform="translate(0,0)"/>
<path d="" fill="#666666" transform="translate(0,0)"/>
<path d="" fill="#7F7F7F" transform="translate(0,0)"/>
<path d="" fill="#000000" transform="translate(0,0)"/>
<path d="" fill="#000000" transform="translate(0,0)"/>
<path d="" fill="#000000" transform="translate(0,0)"/>
<path d="" fill="#000000" transform="translate(0,0)"/>
<path d="" fill="#555555" transform="translate(0,0)"/>
<path d="" fill="#000000" transform="translate(0,0)"/>
<path d="" fill="#000000" transform="translate(0,0)"/>
<path d="" fill="#000000" transform="translate(0,0)"/>
<path d="" fill="#000000" transform="translate(0,0)"/>
<path d="" fill="#FF0000" transform="translate(0,0)"/>
<path d="" fill="#000000" transform="translate(0,0)"/>
<path d="" fill="#555555" transform="translate(0,0)"/>
<path d="" fill="#555555" transform="translate(0,0)"/>
<path d="" fill="#000000" transform="translate(0,0)"/>
<path d="" fill="#7F7F7F" transform="translate(0,0)"/>
<path d="" fill="#7F7F7F" transform="translate(0,0)"/>
<path d="" fill="#7F7F7F" transform="translate(0,0)"/>
<path d="" fill="#000000" transform="translate(0,0)"/>
<path d="" fill="#000000" transform="translate(0,0)"/>
<path d="" fill="#000000" transform="translate(0,0)"/>
<path d="" fill="#000000" transform="translate(0,0)"/>
<path d="" fill="#7F7F7F" transform="translate(0,0)"/>
<path d="" fill="#555555" transform="translate(0,0)"/>
<path d="" fill="#7F7F7F" transform="translate(0,0)"/>
<path d="" fill="#FF0000" transform="translate(0,0)"/>
<path d="" fill="#7F7F7F" transform="translate(0,0)"/>
<path d="" fill="#000000" transform="translate(0,0)"/>
<path d="" fill="#000000" transform="translate(0,0)"/>
<path d="" fill="#FF0000" transform="translate(0,0)"/>
<path d="" fill="#000000" transform="translate(0,0)"/>
<path d="" fill="#000000" transform="translate(0,0)"/>
<path d="" fill="#000000" transform="translate(0,0)"/>
<path d="" fill="#FF0000" transform="translate(0,0)"/>
<path d="" fill="#7F7F7F" transform="translate(0,0)"/>
<path d="" fill="#7F7F7F" transform="translate(0,0)"/>
<path d="" fill="#000000" transform="translate(0,0)"/>
<path d="" fill="#FF0000" transform="translate(0,0)"/>
<path d="" fill="#000000" transform="translate(0,0)"/>
<path d="" fill="#000000" transform="translate(0,0)"/>
<path d="" fill="#FF0000" transform="translate(0,0)"/>
<path d="" fill="#000000" transform="translate(0,0)"/>
<path d="" fill="#FF0000" transform="translate(0,0)"/>
<path d="" fill="#000000" transform="translate(0,0)"/>
<path d="" fill="#000000" transform="translate(0,0)"/>
<path d="" fill="#000000" transform="translate(0,0)"/>
<path d="" fill="#6D6D6D" transform="translate(0,0)"/>
<path d="" fill="#FF0000" transform="translate(0,0)"/>
<path d="" fill="#000000" transform="translate(0,0)"/>
<path d="" fill="#000000" transform="translate(0,0)"/>
<path d="" fill="#000000" transform="translate(0,0)"/>
<path d="" fill="#000000" transform="translate(0,0)"/>
<path d="" fill="#000000" transform="translate(0,0)"/>
<path d="" fill="#000000" transform="translate(0,0)"/>
<path d="" fill="#FF0000" transform="translate(0,0)"/>
<path d="" fill="#000000" transform="translate(0,0)"/>
<path d="" fill="#7F7F7F" transform="translate(0,0)"/>
<path d="" fill="#666666" transform="translate(0,0)"/>
<path d="" fill="#000000" transform="translate(0,0)"/>
<path d="" fill="#FF0000" transform="translate(0,0)"/>
<path d="" fill="#FF0000" transform="translate(0,0)"/>
<path d="" fill="#7F7F7F" transform="translate(0,0)"/>
<path d="" fill="#000000" transform="translate(0,0)"/>
<path d="" fill="#FF0000" transform="translate(0,0)"/>
<path d="" fill="#000000" transform="translate(0,0)"/>
<path d="" fill="#000000" transform="translate(0,0)"/>
<path d="" fill="#000000" transform="translate(0,0)"/>
<path d="" fill="#FF0000" transform="translate(0,0)"/>
<path d="" fill="#000000" transform="translate(0,0)"/>
<path d="" fill="#000000" transform="translate(0,0)"/>
<path d="" fill="#000000" transform="translate(0,0)"/>
<path d="" fill="#000000" transform="translate(0,0)"/>
<path d="" fill="#000000" transform="translate(0,0)"/>
<path d="" fill="#000000" transform="translate(0,0)"/>
<path d="" fill="#000000" transform="translate(0,0)"/>
<path d="" fill="#000000" transform="translate(0,0)"/>
<path d="" fill="#7F7F7F" transform="translate(0,0)"/>
<path d="" fill="#FF0000" transform="translate(0,0)"/>
<path d="" fill="#7F7F7F" transform="translate(0,0)"/>
<path d="" fill="#FF0000" transform="translate(0,0)"/>
<path d="" fill="#000000" transform="translate(0,0)"/>
<path d="" fill="#7F7F7F" transform="translate(0,0)"/>
<path d="" fill="#000000" transform="translate(0,0)"/>
<path d="" fill="#000000" transform="translate(0,0)"/>
<path d="" fill="#FF0000" transform="translate(0,0)"/>
<path d="" fill="#7F7F7F" transform="translate(0,0)"/>
<path d="" fill="#FF0000" transform="translate(0,0)"/>
<path d="" fill="#FF0000" transform="translate(0,0)"/>
<path d="" fill="#000000" transform="translate(0,0)"/>
<path d="" fill="#000000" transform="translate(0,0)"/>
<path d="" fill="#7F7F7F" transform="translate(0,0)"/>
<path d="" fill="#FF0000" transform="translate(0,0)"/>
<path d="" fill="#FF0000" transform="translate(0,0)"/>
<path d="" fill="#000000" transform="translate(0,0)"/>
<path d="" fill="#000000" transform="translate(0,0)"/>
<path d="" fill="#AA5555" transform="translate(0,0)"/>
<path d="" fill="#000000" transform="translate(0,0)"/>
<path d="" fill="#7F7F7F" transform="translate(0,0)"/>
<path d="" fill="#7F7F7F" transform="translate(0,0)"/>
<path d="" fill="#FF0000" transform="translate(0,0)"/>
<path d="" fill="#000000" transform="translate(0,0)"/>
<path d="" fill="#FF0000" transform="translate(0,0)"/>
<path d="" fill="#000000" transform="translate(0,0)"/>
<path d="" fill="#000000" transform="translate(0,0)"/>
<path d="" fill="#FF0000" transform="translate(0,0)"/>
<path d="" fill="#FF0000" transform="translate(0,0)"/>
<path d="" fill="#FF0000" transform="translate(0,0)"/>
<path d="" fill="#7F7F7F" transform="translate(0,0)"/>
<path d="" fill="#000000" transform="translate(0,0)"/>
<path d="" fill="#000000" transform="translate(0,0)"/>
<path d="" fill="#000000" transform="translate(0,0)"/>
<path d="" fill="#7F7F7F" transform="translate(0,0)"/>
<path d="" fill="#FF0000" transform="translate(0,0)"/>
<path d="" fill="#FF0000" transform="translate(0,0)"/>
<path d="" fill="#7F7F7F" transform="translate(0,0)"/>
<path d="" fill="#FF0000" transform="translate(0,0)"/>
<path d="" fill="#FF0000" transform="translate(0,0)"/>
<path d="" fill="#666666" transform="translate(0,0)"/>
<path d="" fill="#000000" transform="translate(0,0)"/>
<path d="" fill="#FF0000" transform="translate(0,0)"/>
<path d="" fill="#FF0000" transform="translate(0,0)"/>
<path d="" fill="#7F7F7F" transform="translate(0,0)"/>
<path d="" fill="#7F7F7F" transform="translate(0,0)"/>
<path d="" fill="#AA5555" transform="translate(0,0)"/>
<path d="" fill="#000000" transform="translate(0,0)"/>
<path d="" fill="#000000" transform="translate(0,0)"/>
<path d="" fill="#FF0000" transform="translate(0,0)"/>
<path d="" fill="#000000" transform="translate(0,0)"/>
<path d="" fill="#7F7F7F" transform="translate(0,0)"/>
<path d="" fill="#7F7F7F" transform="translate(0,0)"/>
<path d="" fill="#FF0000" transform="translate(0,0)"/>
<path d="" fill="#FF0000" transform="translate(0,0)"/>
<path d="" fill="#7F7F7F" transform="translate(0,0)"/>
<path d="" fill="#FF0000" transform="translate(0,0)"/>
<path d="" fill="#7F7F7F" transform="translate(0,0)"/>
<path d="" fill="#7F7F7F" transform="translate(0,0)"/>
<path d="" fill="#FF0000" transform="translate(0,0)"/>
<path d="" fill="#FF0000" transform="translate(0,0)"/>
<path d="" fill="#000000" transform="translate(0,0)"/>
<path d="" fill="#FF0000" transform="translate(0,0)"/>
<path d="" fill="#000000" transform="translate(0,0)"/>
<path d="" fill="#7F7F7F" transform="translate(0,0)"/>
<path d="" fill="#000000" transform="translate(0,0)"/>
<path d="" fill="#FF0000" transform="translate(0,0)"/>
<path d="" fill="#000000" transform="translate(0,0)"/>
<path d="" fill="#FF0000" transform="translate(0,0)"/>
<path d="" fill="#7F7F7F" transform="translate(0,0)"/>
<path d="" fill="#FF0000" transform="translate(0,0)"/>
<path d="" fill="#7F7F7F" transform="translate(0,0)"/>
<path d="" fill="#FF0000" transform="translate(0,0)"/>
<path d="" fill="#FF0000" transform="translate(0,0)"/>
<path d="" fill="#000000" transform="translate(0,0)"/>
<path d="" fill="#FF0000" transform="translate(0,0)"/>
<path d="" fill="#FF0000" transform="translate(0,0)"/>
<path d="" fill="#AA5555" transform="translate(0,0)"/>
<path d="" fill="#FF0000" transform="translate(0,0)"/>
<path d="" fill="#000000" transform="translate(0,0)"/>
<path d="" fill="#000000" transform="translate(0,0)"/>
<path d="" fill="#000000" transform="translate(0,0)"/>
<path d="" fill="#000000" transform="translate(0,0)"/>
<path d="" fill="#FF0000" transform="translate(0,0)"/>
<path d="" fill="#000000" transform="translate(0,0)"/>
<path d="" fill="#FF0000" transform="translate(0,0)"/>
<path d="" fill="#000000" transform="translate(0,0)"/>
<path d="" fill="#FF0000" transform="translate(0,0)"/>
<path d="" fill="#7F7F7F" transform="translate(0,0)"/>
<path d="" fill="#FF0000" transform="translate(0,0)"/>
<path d="" fill="#7F7F7F" transform="translate(0,0)"/>
<path d="" fill="#FF0000" transform="translate(0,0)"/>
<path d="" fill="#FF0000" transform="translate(0,0)"/>
<path d="" fill="#555555" transform="translate(0,0)"/>
<path d="" fill="#7F7F7F" transform="translate(0,0)"/>
<path d="" fill="#AA5555" transform="translate(0,0)"/>
<path d="" fill="#FF0000" transform="translate(0,0)"/>
<path d="" fill="#FF0000" transform="translate(0,0)"/>
<path d="" fill="#FF0000" transform="translate(0,0)"/>
<path d="" fill="#FF0000" transform="translate(0,0)"/>
<path d="" fill="#000000" transform="translate(0,0)"/>
<path d="" fill="#7F7F7F" transform="translate(0,0)"/>
<path d="" fill="#555555" transform="translate(0,0)"/>
<path d="" fill="#000000" transform="translate(0,0)"/>
<path d="" fill="#000000" transform="translate(0,0)"/>
<path d="" fill="#000000" transform="translate(0,0)"/>
<path d="" fill="#FF0000" transform="translate(0,0)"/>
<path d="" fill="#FF0000" transform="translate(0,0)"/>
<path d="" fill="#7F7F7F" transform="translate(0,0)"/>
<path d="" fill="#7F7F7F" transform="translate(0,0)"/>
<path d="" fill="#000000" transform="translate(0,0)"/>
<path d="" fill="#000000" transform="translate(0,0)"/>
<path d="" fill="#FF0000" transform="translate(0,0)"/>
<path d="" fill="#FF0000" transform="translate(0,0)"/>
<path d="" fill="#000000" transform="translate(0,0)"/>
<path d="" fill="#7F7F7F" transform="translate(0,0)"/>
<path d="" fill="#000000" transform="translate(0,0)"/>
<path d="" fill="#000000" transform="translate(0,0)"/>
<path d="" fill="#FF0000" transform="translate(0,0)"/>
<path d="" fill="#000000" transform="translate(0,0)"/>
<path d="" fill="#000000" transform="translate(0,0)"/>
<path d="" fill="#7F7F7F" transform="translate(0,0)"/>
<path d="" fill="#FF0000" transform="translate(0,0)"/>
<path d="" fill="#FF0000" transform="translate(0,0)"/>
<path d="" fill="#FF0000" transform="translate(0,0)"/>
<path d="" fill="#7F7F7F" transform="translate(0,0)"/>
<path d="" fill="#000000" transform="translate(0,0)"/>
<path d="" fill="#7F3F3F" transform="translate(0,0)"/>
<path d="" fill="#000000" transform="translate(0,0)"/>
<path d="" fill="#FF0000" transform="translate(0,0)"/>
<path d="" fill="#FF0000" transform="translate(0,0)"/>
<path d="" fill="#FF0000" transform="translate(0,0)"/>
<path d="" fill="#FF0000" transform="translate(0,0)"/>
<path d="" fill="#7F7F7F" transform="translate(0,0)"/>
<path d="" fill="#000000" transform="translate(0,0)"/>
<path d="" fill="#FF0000" transform="translate(0,0)"/>
<path d="" fill="#000000" transform="translate(0,0)"/>
<path d="" fill="#FF0000" transform="translate(0,0)"/>
<path d="" fill="#FF0000" transform="translate(0,0)"/>
<path d="" fill="#AA5555" transform="translate(0,0)"/>
<path d="" fill="#000000" transform="translate(0,0)"/>
<path d="" fill="#7F7F7F" transform="translate(0,0)"/>
<path d="" fill="#000000" transform="translate(0,0)"/>
<path d="" fill="#FF0000" transform="translate(0,0)"/>
<path d="" fill="#555555" transform="translate(0,0)"/>
<path d="" fill="#FF0000" transform="translate(0,0)"/>
<path d="" fill="#FF0000" transform="translate(0,0)"/>
<path d="" fill="#FF0000" transform="translate(0,0)"/>
<path d="" fill="#7F7F7F" transform="translate(0,0)"/>
<path d="" fill="#FF0000" transform="translate(0,0)"/>
<path d="" fill="#000000" transform="translate(0,0)"/>
<path d="" fill="#FF0000" transform="translate(0,0)"/>
<path d="" fill="#FF0000" transform="translate(0,0)"/>
<path d="" fill="#000000" transform="translate(0,0)"/>
<path d="" fill="#FF0000" transform="translate(0,0)"/>
<path d="" fill="#FF0000" transform="translate(0,0)"/>
<path d="" fill="#FF0000" transform="translate(0,0)"/>
<path d="" fill="#FF0000" transform="translate(0,0)"/>
<path d="" fill="#7F7F7F" transform="translate(0,0)"/>
<path d="" fill="#FF0000" transform="translate(0,0)"/>
<path d="" fill="#7F7F7F" transform="translate(0,0)"/>
<path d="" fill="#FF0000" transform="translate(0,0)"/>
<path d="" fill="#AA5555" transform="translate(0,0)"/>
<path d="" fill="#FF0000" transform="translate(0,0)"/>
<path d="" fill="#FF0000" transform="translate(0,0)"/>
<path d="" fill="#555555" transform="translate(0,0)"/>
<path d="" fill="#FF0000" transform="translate(0,0)"/>
<path d="" fill="#000000" transform="translate(0,0)"/>
<path d="" fill="#FF0000" transform="translate(0,0)"/>
<path d="" fill="#FF0000" transform="translate(0,0)"/>
<path d="" fill="#FF0000" transform="translate(0,0)"/>
<path d="" fill="#7F7F7F" transform="translate(0,0)"/>
<path d="" fill="#FF0000" transform="translate(0,0)"/>
<path d="" fill="#FF0000" transform="translate(0,0)"/>
<path d="" fill="#7F7F7F" transform="translate(0,0)"/>
<path d="" fill="#FF0000" transform="translate(0,0)"/>
<path d="" fill="#FF0000" transform="translate(0,0)"/>
<path d="" fill="#FF0000" transform="translate(0,0)"/>
<path d="" fill="#FF0000" transform="translate(0,0)"/>
<path d="" fill="#000000" transform="translate(0,0)"/>
<path d="" fill="#FF0000" transform="translate(0,0)"/>
<path d="" fill="#7F3F3F" transform="translate(0,0)"/>
<path d="" fill="#000000" transform="translate(0,0)"/>
<path d="" fill="#FF0000" transform="translate(0,0)"/>
<path d="" fill="#FF0000" transform="translate(0,0)"/>
<path d="" fill="#000000" transform="translate(0,0)"/>
<path d="" fill="#FF0000" transform="translate(0,0)"/>
<path d="" fill="#FF0000" transform="translate(0,0)"/>
<path d="" fill="#FF0000" transform="translate(0,0)"/>
</svg>
